<?xml version="1.0" standalone="no"?>
<!DOCTYPE svg PUBLIC "-//W3C//DTD SVG 20010904//EN"
 "http://www.w3.org/TR/2001/REC-SVG-20010904/DTD/svg10.dtd">
<svg version="1.0" xmlns="http://www.w3.org/2000/svg"
 width="260.000000pt" height="260.000000pt" viewBox="0 0 260.000000 260.000000"
 preserveAspectRatio="xMidYMid meet">
<metadata>
Created by potrace 1.14, written by Peter Selinger 2001-2017
</metadata>
<g transform="translate(0.000000,260.000000) scale(0.100000,-0.100000)"
fill="#000000" stroke="none">
<path d="M2155 2306 c-16 -7 -76 -43 -131 -80 -56 -36 -121 -73 -144 -81 -65
-23 -220 -19 -425 12 -160 24 -210 27 -445 27 -246 1 -271 -1 -355 -23 -279
-73 -442 -250 -366 -399 25 -48 64 -72 118 -72 53 1 82 20 123 81 70 103 176
133 480 132 186 0 399 -19 430 -38 10 -6 4 -82 -12 -132 -13 -45 -143 -164
-275 -253 -145 -98 -330 -283 -392 -394 -58 -102 -71 -156 -71 -294 0 -276 86
-444 277 -545 95 -50 161 -57 345 -40 158 14 457 73 531 105 57 25 102 73 118
128 16 54 -8 121 -55 150 -47 28 -99 26 -284 -15 -187 -40 -399 -69 -454 -62
-57 8 -105 44 -134 104 -22 44 -26 66 -27 160 -2 95 1 113 21 151 36 68 166
197 292 290 155 115 222 181 288 282 76 117 85 142 91 245 l6 90 90 6 c134 8
232 45 373 139 125 83 155 109 171 153 45 117 -69 224 -184 173z"/>
</g>
</svg>
